solid OpenSCAD_Model
  facet normal -1 0 0
    outer loop
      vertex -27 -52 -21.5
      vertex -27 52 11.5
      vertex -27 52 -21.5
    endloop
  endfacet
  facet normal -1 -0 0
    outer loop
      vertex -27 52 11.5
      vertex -27 -52 -21.5
      vertex -27 -52 11.5
    endloop
  endfacet
  facet normal 0 0 1
    outer loop
      vertex 26.25 51.5 21.5
      vertex 25.5 50.5 21.5
      vertex 26.25 -51.5 21.5
    endloop
  endfacet
  facet normal 0 0 1
    outer loop
      vertex 26.25 51.5 21.5
      vertex -25.5 50.5 21.5
      vertex 25.5 50.5 21.5
    endloop
  endfacet
  facet normal 0 0 1
    outer loop
      vertex -25.5 50.5 21.5
      vertex -26.25 51.5 21.5
      vertex -25.5 -50.5 21.5
    endloop
  endfacet
  facet normal -0 0 1
    outer loop
      vertex -26.25 51.5 21.5
      vertex -25.5 50.5 21.5
      vertex 26.25 51.5 21.5
    endloop
  endfacet
  facet normal -0 0 1
    outer loop
      vertex 25.5 -50.5 21.5
      vertex 26.25 -51.5 21.5
      vertex 25.5 50.5 21.5
    endloop
  endfacet
  facet normal -0 0 1
    outer loop
      vertex -25.5 -50.5 21.5
      vertex 26.25 -51.5 21.5
      vertex 25.5 -50.5 21.5
    endloop
  endfacet
  facet normal 0 0 1
    outer loop
      vertex -25.5 -50.5 21.5
      vertex -26.25 -51.5 21.5
      vertex 26.25 -51.5 21.5
    endloop
  endfacet
  facet normal 0 0 1
    outer loop
      vertex -26.25 -51.5 21.5
      vertex -25.5 -50.5 21.5
      vertex -26.25 51.5 21.5
    endloop
  endfacet
  facet normal 1 -0 0
    outer loop
      vertex 27 -52 11.5
      vertex 27 52 -21.5
      vertex 27 52 11.5
    endloop
  endfacet
  facet normal 1 0 0
    outer loop
      vertex 27 52 -21.5
      vertex 27 -52 11.5
      vertex 27 -52 -21.5
    endloop
  endfacet
  facet normal 0 0 -1
    outer loop
      vertex -27 -52 -21.5
      vertex 27 52 -21.5
      vertex 27 -52 -21.5
    endloop
  endfacet
  facet normal -0 0 -1
    outer loop
      vertex 27 52 -21.5
      vertex -27 -52 -21.5
      vertex -27 52 -21.5
    endloop
  endfacet
  facet normal 0 -1 0
    outer loop
      vertex -27 -52 -21.5
      vertex 27 -52 11.5
      vertex -27 -52 11.5
    endloop
  endfacet
  facet normal 0 -1 -0
    outer loop
      vertex 27 -52 11.5
      vertex -27 -52 -21.5
      vertex 27 -52 -21.5
    endloop
  endfacet
  facet normal 0 1 -0
    outer loop
      vertex 27 52 -21.5
      vertex -27 52 11.5
      vertex 27 52 11.5
    endloop
  endfacet
  facet normal 0 1 0
    outer loop
      vertex -27 52 11.5
      vertex 27 52 -21.5
      vertex -27 52 -21.5
    endloop
  endfacet
  facet normal 1 -0 0
    outer loop
      vertex -25.5 -50.5 21.5
      vertex -25.5 50.5 -18.5
      vertex -25.5 50.5 21.5
    endloop
  endfacet
  facet normal 1 0 0
    outer loop
      vertex -25.5 50.5 -18.5
      vertex -25.5 -50.5 21.5
      vertex -25.5 -50.5 -18.5
    endloop
  endfacet
  facet normal -1 0 0
    outer loop
      vertex 25.5 -50.5 -18.5
      vertex 25.5 50.5 21.5
      vertex 25.5 50.5 -18.5
    endloop
  endfacet
  facet normal -1 -0 0
    outer loop
      vertex 25.5 50.5 21.5
      vertex 25.5 -50.5 -18.5
      vertex 25.5 -50.5 21.5
    endloop
  endfacet
  facet normal 0 -1 0
    outer loop
      vertex -25.5 50.5 -18.5
      vertex 25.5 50.5 21.5
      vertex -25.5 50.5 21.5
    endloop
  endfacet
  facet normal 0 -1 -0
    outer loop
      vertex 25.5 50.5 21.5
      vertex -25.5 50.5 -18.5
      vertex 25.5 50.5 -18.5
    endloop
  endfacet
  facet normal -0 0 1
    outer loop
      vertex -25.5 50.5 -18.5
      vertex 25.5 -50.5 -18.5
      vertex 25.5 50.5 -18.5
    endloop
  endfacet
  facet normal 0 0 1
    outer loop
      vertex 25.5 -50.5 -18.5
      vertex -25.5 50.5 -18.5
      vertex -25.5 -50.5 -18.5
    endloop
  endfacet
  facet normal 0 1 -0
    outer loop
      vertex 25.5 -50.5 -18.5
      vertex -25.5 -50.5 21.5
      vertex 25.5 -50.5 21.5
    endloop
  endfacet
  facet normal 0 1 0
    outer loop
      vertex -25.5 -50.5 21.5
      vertex 25.5 -50.5 -18.5
      vertex -25.5 -50.5 -18.5
    endloop
  endfacet
  facet normal 0 0 1
    outer loop
      vertex 27 52 11.5
      vertex 26.25 51.5 11.5
      vertex 27 -52 11.5
    endloop
  endfacet
  facet normal 0 0 1
    outer loop
      vertex 27 52 11.5
      vertex -26.25 51.5 11.5
      vertex 26.25 51.5 11.5
    endloop
  endfacet
  facet normal 0 0 1
    outer loop
      vertex -26.25 51.5 11.5
      vertex -27 52 11.5
      vertex -26.25 -51.5 11.5
    endloop
  endfacet
  facet normal -0 0 1
    outer loop
      vertex -27 52 11.5
      vertex -26.25 51.5 11.5
      vertex 27 52 11.5
    endloop
  endfacet
  facet normal -0 0 1
    outer loop
      vertex 26.25 -51.5 11.5
      vertex 27 -52 11.5
      vertex 26.25 51.5 11.5
    endloop
  endfacet
  facet normal -0 0 1
    outer loop
      vertex -26.25 -51.5 11.5
      vertex 27 -52 11.5
      vertex 26.25 -51.5 11.5
    endloop
  endfacet
  facet normal 0 0 1
    outer loop
      vertex -26.25 -51.5 11.5
      vertex -27 -52 11.5
      vertex 27 -52 11.5
    endloop
  endfacet
  facet normal 0 0 1
    outer loop
      vertex -27 -52 11.5
      vertex -26.25 -51.5 11.5
      vertex -27 52 11.5
    endloop
  endfacet
  facet normal -1 0 0
    outer loop
      vertex -26.25 -51.5 11.5
      vertex -26.25 51.5 21.5
      vertex -26.25 51.5 11.5
    endloop
  endfacet
  facet normal -1 -0 0
    outer loop
      vertex -26.25 51.5 21.5
      vertex -26.25 -51.5 11.5
      vertex -26.25 -51.5 21.5
    endloop
  endfacet
  facet normal 1 -0 0
    outer loop
      vertex 26.25 -51.5 21.5
      vertex 26.25 51.5 11.5
      vertex 26.25 51.5 21.5
    endloop
  endfacet
  facet normal 1 0 0
    outer loop
      vertex 26.25 51.5 11.5
      vertex 26.25 -51.5 21.5
      vertex 26.25 -51.5 11.5
    endloop
  endfacet
  facet normal 0 1 -0
    outer loop
      vertex 26.25 51.5 11.5
      vertex -26.25 51.5 21.5
      vertex 26.25 51.5 21.5
    endloop
  endfacet
  facet normal 0 1 0
    outer loop
      vertex -26.25 51.5 21.5
      vertex 26.25 51.5 11.5
      vertex -26.25 51.5 11.5
    endloop
  endfacet
  facet normal 0 -1 0
    outer loop
      vertex -26.25 -51.5 11.5
      vertex 26.25 -51.5 21.5
      vertex -26.25 -51.5 21.5
    endloop
  endfacet
  facet normal 0 -1 -0
    outer loop
      vertex 26.25 -51.5 21.5
      vertex -26.25 -51.5 11.5
      vertex 26.25 -51.5 11.5
    endloop
  endfacet
endsolid OpenSCAD_Model
