solid OpenSCAD_Model
  facet normal -1 0 0
    outer loop
      vertex -27 -52 -6
      vertex -27 52 6
      vertex -27 52 -6
    endloop
  endfacet
  facet normal -1 -0 0
    outer loop
      vertex -27 52 6
      vertex -27 -52 -6
      vertex -27 -52 6
    endloop
  endfacet
  facet normal 0 0 1
    outer loop
      vertex 27 52 6
      vertex 26.5 51.6 6
      vertex 27 -52 6
    endloop
  endfacet
  facet normal 0 0 1
    outer loop
      vertex 27 52 6
      vertex -26.5 51.6 6
      vertex 26.5 51.6 6
    endloop
  endfacet
  facet normal 0 0 1
    outer loop
      vertex -26.5 51.6 6
      vertex -27 52 6
      vertex -26.5 -51.6 6
    endloop
  endfacet
  facet normal -0 0 1
    outer loop
      vertex -27 52 6
      vertex -26.5 51.6 6
      vertex 27 52 6
    endloop
  endfacet
  facet normal -0 0 1
    outer loop
      vertex 26.5 -51.6 6
      vertex 27 -52 6
      vertex 26.5 51.6 6
    endloop
  endfacet
  facet normal -0 0 1
    outer loop
      vertex -26.5 -51.6 6
      vertex 27 -52 6
      vertex 26.5 -51.6 6
    endloop
  endfacet
  facet normal 0 0 1
    outer loop
      vertex -26.5 -51.6 6
      vertex -27 -52 6
      vertex 27 -52 6
    endloop
  endfacet
  facet normal 0 0 1
    outer loop
      vertex -27 -52 6
      vertex -26.5 -51.6 6
      vertex -27 52 6
    endloop
  endfacet
  facet normal 1 -0 0
    outer loop
      vertex 27 -52 6
      vertex 27 52 -6
      vertex 27 52 6
    endloop
  endfacet
  facet normal 1 0 0
    outer loop
      vertex 27 52 -6
      vertex 27 -52 6
      vertex 27 -52 -6
    endloop
  endfacet
  facet normal 0 0 -1
    outer loop
      vertex -27 -52 -6
      vertex 27 52 -6
      vertex 27 -52 -6
    endloop
  endfacet
  facet normal -0 0 -1
    outer loop
      vertex 27 52 -6
      vertex -27 -52 -6
      vertex -27 52 -6
    endloop
  endfacet
  facet normal 0 -1 0
    outer loop
      vertex -27 -52 -6
      vertex 27 -52 6
      vertex -27 -52 6
    endloop
  endfacet
  facet normal 0 -1 -0
    outer loop
      vertex 27 -52 6
      vertex -27 -52 -6
      vertex 27 -52 -6
    endloop
  endfacet
  facet normal 0 1 -0
    outer loop
      vertex 27 52 -6
      vertex -27 52 6
      vertex 27 52 6
    endloop
  endfacet
  facet normal 0 1 0
    outer loop
      vertex -27 52 6
      vertex 27 52 -6
      vertex -27 52 -6
    endloop
  endfacet
  facet normal 1 -0 0
    outer loop
      vertex -26.5 -51.6 6
      vertex -26.5 51.6 -4
      vertex -26.5 51.6 6
    endloop
  endfacet
  facet normal 1 0 0
    outer loop
      vertex -26.5 51.6 -4
      vertex -26.5 -51.6 6
      vertex -26.5 -51.6 -4
    endloop
  endfacet
  facet normal -1 0 0
    outer loop
      vertex 26.5 -51.6 -4
      vertex 26.5 51.6 6
      vertex 26.5 51.6 -4
    endloop
  endfacet
  facet normal -1 -0 0
    outer loop
      vertex 26.5 51.6 6
      vertex 26.5 -51.6 -4
      vertex 26.5 -51.6 6
    endloop
  endfacet
  facet normal -0 0 1
    outer loop
      vertex -26.5 51.6 -4
      vertex 26.5 -51.6 -4
      vertex 26.5 51.6 -4
    endloop
  endfacet
  facet normal 0 0 1
    outer loop
      vertex 26.5 -51.6 -4
      vertex -26.5 51.6 -4
      vertex -26.5 -51.6 -4
    endloop
  endfacet
  facet normal 0 1 -0
    outer loop
      vertex 26.5 -51.6 -4
      vertex -26.5 -51.6 6
      vertex 26.5 -51.6 6
    endloop
  endfacet
  facet normal 0 1 0
    outer loop
      vertex -26.5 -51.6 6
      vertex 26.5 -51.6 -4
      vertex -26.5 -51.6 -4
    endloop
  endfacet
  facet normal 0 -1 0
    outer loop
      vertex -26.5 51.6 -4
      vertex 26.5 51.6 6
      vertex -26.5 51.6 6
    endloop
  endfacet
  facet normal 0 -1 -0
    outer loop
      vertex 26.5 51.6 6
      vertex -26.5 51.6 -4
      vertex 26.5 51.6 -4
    endloop
  endfacet
endsolid OpenSCAD_Model
