solid OpenSCAD_Model
  facet normal -1 0 0
    outer loop
      vertex 0 0 0
      vertex 0 147 3
      vertex 0 147 0
    endloop
  endfacet
  facet normal -1 -0 0
    outer loop
      vertex 0 147 3
      vertex 0 0 0
      vertex 0 0 3
    endloop
  endfacet
  facet normal 0 0 1
    outer loop
      vertex 7 147 3
      vertex 0 147 3
      vertex 7 7 3
    endloop
  endfacet
  facet normal 0 0 1
    outer loop
      vertex 102 7 3
      vertex 109 147 3
      vertex 102 147 3
    endloop
  endfacet
  facet normal 0 0 1
    outer loop
      vertex 109 147 3
      vertex 102 7 3
      vertex 109 0 3
    endloop
  endfacet
  facet normal -0 0 1
    outer loop
      vertex 7 7 3
      vertex 109 0 3
      vertex 102 7 3
    endloop
  endfacet
  facet normal 0 0 1
    outer loop
      vertex 7 7 3
      vertex 0 0 3
      vertex 109 0 3
    endloop
  endfacet
  facet normal 0 0 1
    outer loop
      vertex 0 0 3
      vertex 7 7 3
      vertex 0 147 3
    endloop
  endfacet
  facet normal 1 -0 0
    outer loop
      vertex 109 0 3
      vertex 109 147 0
      vertex 109 147 3
    endloop
  endfacet
  facet normal 1 0 0
    outer loop
      vertex 109 147 0
      vertex 109 0 3
      vertex 109 0 0
    endloop
  endfacet
  facet normal 0 1 0
    outer loop
      vertex 109 147 3
      vertex 102 147 2
      vertex 102 147 3
    endloop
  endfacet
  facet normal 0 1 0
    outer loop
      vertex 102 147 2
      vertex 109 147 0
      vertex 7 147 2
    endloop
  endfacet
  facet normal 0 1 -0
    outer loop
      vertex 109 147 0
      vertex 102 147 2
      vertex 109 147 3
    endloop
  endfacet
  facet normal 0 1 -0
    outer loop
      vertex 7 147 2
      vertex 0 147 3
      vertex 7 147 3
    endloop
  endfacet
  facet normal 0 1 0
    outer loop
      vertex 7 147 2
      vertex 0 147 0
      vertex 0 147 3
    endloop
  endfacet
  facet normal 0 1 0
    outer loop
      vertex 0 147 0
      vertex 7 147 2
      vertex 109 147 0
    endloop
  endfacet
  facet normal 0 0 -1
    outer loop
      vertex 0 0 0
      vertex 109 147 0
      vertex 109 0 0
    endloop
  endfacet
  facet normal -0 0 -1
    outer loop
      vertex 109 147 0
      vertex 0 0 0
      vertex 0 147 0
    endloop
  endfacet
  facet normal 0 -1 0
    outer loop
      vertex 0 0 0
      vertex 109 0 3
      vertex 0 0 3
    endloop
  endfacet
  facet normal 0 -1 -0
    outer loop
      vertex 109 0 3
      vertex 0 0 0
      vertex 109 0 0
    endloop
  endfacet
  facet normal 1 -0 0
    outer loop
      vertex 7 7 3
      vertex 7 147 2
      vertex 7 147 3
    endloop
  endfacet
  facet normal 1 0 0
    outer loop
      vertex 7 147 2
      vertex 7 7 3
      vertex 7 7 2
    endloop
  endfacet
  facet normal -1 0 0
    outer loop
      vertex 102 7 2
      vertex 102 147 3
      vertex 102 147 2
    endloop
  endfacet
  facet normal -1 -0 0
    outer loop
      vertex 102 147 3
      vertex 102 7 2
      vertex 102 7 3
    endloop
  endfacet
  facet normal -0 0 1
    outer loop
      vertex 7 147 2
      vertex 102 7 2
      vertex 102 147 2
    endloop
  endfacet
  facet normal 0 0 1
    outer loop
      vertex 102 7 2
      vertex 7 147 2
      vertex 7 7 2
    endloop
  endfacet
  facet normal 0 1 -0
    outer loop
      vertex 102 7 2
      vertex 7 7 3
      vertex 102 7 3
    endloop
  endfacet
  facet normal 0 1 0
    outer loop
      vertex 7 7 3
      vertex 102 7 2
      vertex 7 7 2
    endloop
  endfacet
endsolid OpenSCAD_Model
