solid OpenSCAD_Model
  facet normal -1 0 0
    outer loop
      vertex 0 0 0
      vertex 0 40 1.5
      vertex 0 40 0
    endloop
  endfacet
  facet normal -1 -0 0
    outer loop
      vertex 0 40 1.5
      vertex 0 0 0
      vertex 0 0 1.5
    endloop
  endfacet
  facet normal 0 0 1
    outer loop
      vertex 2 40 1.5
      vertex 0 40 1.5
      vertex 2 2 1.5
    endloop
  endfacet
  facet normal 0 0 1
    outer loop
      vertex 28 2 1.5
      vertex 30 40 1.5
      vertex 28 40 1.5
    endloop
  endfacet
  facet normal 0 0 1
    outer loop
      vertex 30 40 1.5
      vertex 28 2 1.5
      vertex 30 0 1.5
    endloop
  endfacet
  facet normal -0 0 1
    outer loop
      vertex 2 2 1.5
      vertex 30 0 1.5
      vertex 28 2 1.5
    endloop
  endfacet
  facet normal 0 0 1
    outer loop
      vertex 2 2 1.5
      vertex 0 0 1.5
      vertex 30 0 1.5
    endloop
  endfacet
  facet normal 0 0 1
    outer loop
      vertex 0 0 1.5
      vertex 2 2 1.5
      vertex 0 40 1.5
    endloop
  endfacet
  facet normal 1 -0 0
    outer loop
      vertex 30 0 1.5
      vertex 30 40 0
      vertex 30 40 1.5
    endloop
  endfacet
  facet normal 1 0 0
    outer loop
      vertex 30 40 0
      vertex 30 0 1.5
      vertex 30 0 0
    endloop
  endfacet
  facet normal 0 0 -1
    outer loop
      vertex 0 0 0
      vertex 30 40 0
      vertex 30 0 0
    endloop
  endfacet
  facet normal -0 0 -1
    outer loop
      vertex 30 40 0
      vertex 0 0 0
      vertex 0 40 0
    endloop
  endfacet
  facet normal 0 -1 0
    outer loop
      vertex 0 0 0
      vertex 30 0 1.5
      vertex 0 0 1.5
    endloop
  endfacet
  facet normal 0 -1 -0
    outer loop
      vertex 30 0 1.5
      vertex 0 0 0
      vertex 30 0 0
    endloop
  endfacet
  facet normal 0 1 0
    outer loop
      vertex 30 40 1.5
      vertex 28 40 1.1
      vertex 28 40 1.5
    endloop
  endfacet
  facet normal 0 1 0
    outer loop
      vertex 28 40 1.1
      vertex 30 40 0
      vertex 2 40 1.1
    endloop
  endfacet
  facet normal 0 1 -0
    outer loop
      vertex 30 40 0
      vertex 28 40 1.1
      vertex 30 40 1.5
    endloop
  endfacet
  facet normal 0 1 -0
    outer loop
      vertex 2 40 1.1
      vertex 0 40 1.5
      vertex 2 40 1.5
    endloop
  endfacet
  facet normal 0 1 0
    outer loop
      vertex 2 40 1.1
      vertex 0 40 0
      vertex 0 40 1.5
    endloop
  endfacet
  facet normal 0 1 0
    outer loop
      vertex 0 40 0
      vertex 2 40 1.1
      vertex 30 40 0
    endloop
  endfacet
  facet normal 1 -0 0
    outer loop
      vertex 2 2 1.5
      vertex 2 40 1.1
      vertex 2 40 1.5
    endloop
  endfacet
  facet normal 1 0 0
    outer loop
      vertex 2 40 1.1
      vertex 2 2 1.5
      vertex 2 2 1.1
    endloop
  endfacet
  facet normal -1 0 0
    outer loop
      vertex 28 2 1.1
      vertex 28 40 1.5
      vertex 28 40 1.1
    endloop
  endfacet
  facet normal -1 -0 0
    outer loop
      vertex 28 40 1.5
      vertex 28 2 1.1
      vertex 28 2 1.5
    endloop
  endfacet
  facet normal -0 0 1
    outer loop
      vertex 2 40 1.1
      vertex 28 2 1.1
      vertex 28 40 1.1
    endloop
  endfacet
  facet normal 0 0 1
    outer loop
      vertex 28 2 1.1
      vertex 2 40 1.1
      vertex 2 2 1.1
    endloop
  endfacet
  facet normal 0 1 -0
    outer loop
      vertex 28 2 1.1
      vertex 2 2 1.5
      vertex 28 2 1.5
    endloop
  endfacet
  facet normal 0 1 0
    outer loop
      vertex 2 2 1.5
      vertex 28 2 1.1
      vertex 2 2 1.1
    endloop
  endfacet
endsolid OpenSCAD_Model
